# xmcd
#
# Track frame offsets:
#	150
#	9910
#	22450
#	33592
#	45287
#	59153
#	68278
#	77933
#	87955
#	100684
#	109509
#	120070
#
# Disc length: 1795 seconds
# Revision: 0
# Processed by: cddbd v1.5.2PL0 Copyright (c) Steve Scherf et al.
# Submitted via: dBpowerAMP V12.0
#
DISCID=8907010c
DTITLE=Various Artist - I Love: Tom T. Hall's Songs Of Fox Hollow
DYEAR=2011
DGENRE=Folk
TTITLE0=Patty Griffin - I Love
TTITLE1=Buddy Miller and Duane Eddy - Sneaky Snake
TTITLE2=Duane Eddy, Baker Maultsby and  Peter Cooper - Everybody Loves To Hear a Bird Sing
TTITLE3=Jim Lauderdale - I Like To Feel Pretty Inside
TTITLE4=Eric Brace and Last Train Home - The Mysterious Fox of Fox Hollow
TTITLE5=Tim Carroll and Elizabeth Cook - I Wish I Had a Million Friends
TTITLE6=Gary Bennett - The Barn Dance
TTITLE7=Mark Horn and Michael Supe Granda - The Song of the One-Legged Chicken
TTITLE8=Jon Byrd - How To Talk To a Little Baby Goat
TTITLE9=Tommy Cash - Ole Lonesome George the Basset
TTITLE10=Bobby Bare - I Care
TTITLE11=Tom T. Hal and Fayssoux Starling McLean - I Made a Friend of a Flower Today
EXTD=
EXTT0=
EXTT1=
EXTT2=
EXTT3=
EXTT4=
EXTT5=
EXTT6=
EXTT7=
EXTT8=
EXTT9=
EXTT10=
EXTT11=
PLAYORDER=
